<?xml version="1.0" encoding="UTF-8"?>
<svg width="1920px" height="5558px" viewBox="0 0 1920 5558" version="1.1" xmlns="http://www.w3.org/2000/svg" xmlns:xlink="http://www.w3.org/1999/xlink">
    <!-- Generator: Sketch 52.6 (67491) - http://www.bohemiancoding.com/sketch -->
    <title>background_bubbles_01</title>
    <desc>Created with Sketch.</desc>
    <g id="background_bubbles_01" stroke="none" stroke-width="1" fill="none" fill-rule="evenodd">
        <rect fill="#FFFFFF" x="0" y="0" width="1920" height="5558"></rect>
        <path d="M879.617419,3397.7864 C892.401194,3540.71733 582.372892,3633.94628 315.524345,3568.88404 C48.6757978,3503.8218 -73.741663,3249.74643 53.5940147,3114.36508 C180.929692,2978.98374 866.833644,3254.85548 879.617419,3397.7864 Z" id="bubble-E" fill="#F2F2F2"></path>
        <g id="Background-Shape-2" opacity="0.6" transform="translate(1010.000000, 2069.000000)" fill="#F2F2F2">
            <path d="M1465.36048,347.268046 C1486.72993,502.482097 968.484218,603.722911 522.418118,533.069388 C76.3520178,462.415865 -128.281959,186.505889 84.5733472,39.4902071 C297.428653,-107.525474 1443.99102,192.053996 1465.36048,347.268046 Z" id="Background-Shape" transform="translate(733.000000, 278.000000) scale(-1, 1) translate(-733.000000, -278.000000) "></path>
        </g>
        <circle id="Oval-Copy" fill="#F2F2F2" fill-rule="nonzero" cx="1162.5" cy="3554.5" r="21.5"></circle>
        <path d="M183.619486,4855.98849 C40.6296621,4868.77461 -52.6377066,4558.68929 12.4513414,4291.79166 C77.5403894,4024.89402 331.720463,3902.45405 467.157598,4029.81315 C602.594733,4157.17225 326.609309,4843.20236 183.619486,4855.98849 Z" id="Background-Shape-Copy" fill="#DDE3E9"></path>
        <circle id="Bubble-Azul" fill="#DDE3E9" fill-rule="nonzero" cx="861" cy="2870" r="46"></circle>
        <g id="Background-Shape-2" opacity="0.544893973" transform="translate(-122.000000, 945.000000)" fill="#F2F2F2">
            <path d="M1465.36048,347.268046 C1486.72993,502.482097 968.484218,603.722911 522.418118,533.069388 C76.3520178,462.415865 -128.281959,186.505889 84.5733472,39.4902071 C297.428653,-107.525474 1443.99102,192.053996 1465.36048,347.268046 Z" id="Background-Shape"></path>
        </g>
        <path d="M679.597321,1479.33427 C711.702691,1313.62262 1036.57092,1408.02618 1249.5509,1356.7961 C1462.53087,1305.56602 1714.50393,1066.97721 1881.26413,1183.84997 C2048.02433,1300.72274 1870.59339,1583.23809 1488.11698,1646.99241 C1105.64057,1710.74673 647.491952,1645.04591 679.597321,1479.33427 Z" id="Background-Shape" fill="#DDE3E9"></path>
    </g>
</svg>